<svg xmlns="http://www.w3.org/2000/svg" width="233" height="245" fill="none" viewBox="0 0 233 245"><g opacity=".4"><path fill="#0071BC" d="m134.227 229.896-2.349 7.523c1.126-3.29 2.132-6.514 3.258-9.805l-.119.067c-.287.603-.629 1.386-.79 2.215"/><path fill="#B8D1F5" d="M76.68 101.142c-3.47-6.49-6.758-12.935-8.08-20.33C66.493 68.386 73.352 58.048 82.387 53c3.21-1.793 7.14-1.179 9.246 1.194 1.86 2.214 1.4 5.577-1.118 8.61l-.881.936-1.762 1.871c-4.818 5.057-5.943 10.861-3.334 16.65 2.742 6.305 6.436 12.08 9.353 18.14.951 1.982 1.252 4.476.945 6.717-.23 2.939-2.783 4.512-5.657 5.231-2.692.764-5.063-.129-6.68-2.184-1.993-2.732-3.818-6-5.819-9.023"/><path fill="#B8D1F5" d="M142.392 48.164c-2.141-3.832-4.883-7.624-7.911-10.812-15.766-16.776-40.279-21.567-62.587-12.36-17.12 7.05-28.447 19.44-34.06 36.475-4.88 15-3.332 29.218 3.978 42.584 12.724 23.059 25.686 45.985 38.53 68.977.44.789.88 1.578 1.385 2.48 3.076-2.31 6.587-4.123 10.65-5.506 15.294-5.29 29.365-3.834 40.899 7.321 1.665 1.584 2.973 3.367 4.4 5.084l1.951 3.494c.651 2.002 1.42 3.938 1.889 5.895 1.54 6.386 1.093 12.846-.983 19.181-1.797 5.44-3.593 10.88-5.327 16.432 1.147.099 1.993.218 2.958.27 15.876 1.336 30.352-2.906 42.939-13.042 22.279-17.916 28.268-46.844 15.047-70.513-17.999-31.942-35.759-64.017-53.758-95.96m10.498 58.165-66.692 37.254c-.315-.564-.748-1.061-1-1.512-9.255-16.568-18.866-32.936-27.645-49.77-8.276-15.932-1.264-37.445 14.61-46.165 5.587-3.12 11.056-6.175 17.427-6.777 13.826-1.216 24.904 3.538 33.046 13.926 1.742 2.28 3.127 4.76 4.512 7.239l24.112 43.167c.56.722 1.063 1.624 1.63 2.638"/><path fill="#B8D1F5" d="M141.436 191.998c-.469-1.956-1.238-3.892-1.889-5.895l-1.952-3.494c-1.427-1.716-2.735-3.5-4.399-5.084-11.534-11.154-25.605-12.61-40.9-7.32-3.943 1.316-7.573 3.195-10.65 5.505l.126.226c-4.72 4.115-7.852 9.118-9.76 14.916-.79 2.216-2.77 2.582-4.77 2.073-10.428-2.752-19.813.272-28.085 6.963-12.524 10.249-18.663 22.994-15.213 38.664.476 2.248 1.309 4.297 2.022 6.412l1.952 3.494c1.364 1.604 2.609 3.275 4.029 4.7 4.63 4.659 10.365 7.666 16.849 9.221 17.876 4.358 35.99 8.584 53.865 12.942 4.001 1.019 8.029.691 11.98-.333l2.735-1.527c4.132-3.492 5.95-8.056 7.397-13.005 2.223-7.748 4.572-15.271 6.976-22.973-2.859 8.843-5.781 17.573-8.64 26.416 2.859-8.843 5.718-17.685 8.64-26.416l2.349-7.522.727-2.329.119-.066c1.797-5.44 3.593-10.88 5.327-16.432 2.258-6.29 2.705-12.75 1.165-19.136m-18.699 8.967c.252 2.964-.209 6.327-1.041 9.306-4.18 14.017-8.542 27.988-12.904 41.959-1.566 5.015-3.706 6.21-8.797 4.914-14.184-3.612-28.367-7.224-42.495-11.014-5.637-1.436-10.344-4.278-13.177-9.349-5.792-10.37.529-23.068 12.865-26.114 4.79-1.198 9.56-.756 14.106.401 9.875 2.321 10.106 1.897 13.314-7.437 1.63-4.903 4.048-9.507 8.118-13.111 5.545-4.872 11.895-6.349 18.637-4.052 6.861 2.23 10.778 7.288 11.374 14.497"/></g></svg>