<svg xmlns="http://www.w3.org/2000/svg" width="100" height="100" fill="none" viewBox="0 0 100 100"><circle cx="50" cy="50" r="50" fill="#E8F0FC"/><mask id="mask0_380_23987" width="54" height="51" x="24" y="24" maskUnits="userSpaceOnUse" style="mask-type:luminance"><path fill="#fff" d="m49.388 25.52-7.174 11.185a2.26 2.26 0 0 1-1.519 1.001l-14.079 2.375c-1.76.297-2.492 2.424-1.284 3.743l10.71 11.683a2.24 2.24 0 0 1 .572 1.788l-1.836 15.177c-.214 1.747 1.574 3.052 3.169 2.32l12.394-5.67a2.27 2.27 0 0 1 1.871 0l12.374 5.67c1.602.732 3.383-.573 3.17-2.32l-1.838-15.177a2.26 2.26 0 0 1 .574-1.788L77.2 43.824c1.208-1.312.476-3.446-1.284-3.743l-14.072-2.375a2.22 2.22 0 0 1-1.52-1.008l-7.16-11.179c-.884-1.38-2.907-1.38-3.79 0z"/></mask><g mask="url(#mask0_380_23987)"><path fill="#fff" d="m49.388 25.52-7.174 11.185a2.26 2.26 0 0 1-1.519 1.001l-14.079 2.375c-1.76.297-2.492 2.424-1.284 3.743l10.71 11.683a2.24 2.24 0 0 1 .572 1.788l-1.836 15.177c-.214 1.747 1.574 3.052 3.169 2.32l12.394-5.67a2.27 2.27 0 0 1 1.871 0l12.374 5.67c1.602.732 3.383-.573 3.17-2.32l-1.838-15.177a2.26 2.26 0 0 1 .574-1.788L77.2 43.824c1.208-1.312.476-3.446-1.284-3.743l-14.072-2.375a2.22 2.22 0 0 1-1.52-1.008l-7.16-11.179c-.884-1.38-2.907-1.38-3.79 0z"/><path fill="#B8D1F5" d="m58.156 75.234-8.672 6.276c-.276.2-.6.31-.932.325l-20.266.925a1.725 1.725 0 0 1-1.74-1.257l-5.33-19.057-6.139-23.476a1.726 1.726 0 0 1 1.278-2.12l27.598-6.477a1.73 1.73 0 0 1 1.85.753l8.46 13.202c.262.407.683.69 1.166.773l6.16 1.043c1.346.228 1.912 1.864.986 2.872l-5.371 5.855a1.73 1.73 0 0 0-.442 1.374l2.099 17.387a1.73 1.73 0 0 1-.705 1.608z"/><path fill="#669BE9" fill-rule="evenodd" d="M50.435 37.658c.517.436.583 1.21.146 1.726l-3.39 4.016a4 4 0 0 1-2.598 1.7l-5.266 1.317a1.225 1.225 0 1 1-.594-2.377l5.308-1.327q.044-.011.092-.019c.433-.073.81-.324 1.045-.69q.043-.068.095-.128l3.436-4.072a1.225 1.225 0 0 1 1.726-.146" clip-rule="evenodd"/><path stroke="#1960CA" stroke-linecap="round" stroke-linejoin="round" stroke-width="2.667" d="M50.51 26.239q.031-.047.056-.095a.92.92 0 0 1 1.476.094h0l7.154 11.17.004.005a3.55 3.55 0 0 0 2.425 1.608h.003l14.067 2.375h0a.918.918 0 0 1 .525 1.524l-.002.003-10.71 11.683h0a3.59 3.59 0 0 0-.914 2.842v.007l1.838 15.177v.002a.916.916 0 0 1-1.292.945L52.768 67.91l-.005-.002a3.6 3.6 0 0 0-2.972 0l-.004.001-12.395 5.67h-.001a.918.918 0 0 1-1.29-.946v-.002l1.836-15.168v-.005a3.57 3.57 0 0 0-.912-2.852v-.001l-10.71-11.683q0 0 0 0a.917.917 0 0 1 .523-1.527h0l14.076-2.375h.001a3.6 3.6 0 0 0 2.417-1.59h0l.005-.006z"/></g><path fill="#96BAF0" d="M72.015 30.18a7.52 7.52 0 0 1 5.664-5.665c.205-.047.205-.326 0-.364a7.52 7.52 0 0 1-5.664-5.664c-.047-.205-.326-.205-.364 0a7.52 7.52 0 0 1-5.664 5.664c-.205.047-.205.326 0 .364a7.52 7.52 0 0 1 5.664 5.664c.047.205.326.205.364 0M22.015 66.846a7.52 7.52 0 0 1 5.664-5.664c.205-.047.205-.326 0-.364a7.52 7.52 0 0 1-5.664-5.664c-.047-.205-.326-.205-.364 0a7.52 7.52 0 0 1-5.664 5.664c-.205.047-.205.326 0 .364a7.52 7.52 0 0 1 5.664 5.664c.047.205.326.205.364 0"/></svg>