<svg xmlns="http://www.w3.org/2000/svg" width="100" height="100" fill="none" viewBox="0 0 100 100"><circle cx="50" cy="50" r="50" fill="#E8F0FC"/><path fill="#96BAF0" d="M76.182 28.513a7.52 7.52 0 0 1 5.664-5.664c.205-.047.205-.326 0-.364a7.52 7.52 0 0 1-5.664-5.664c-.047-.205-.326-.205-.364 0a7.52 7.52 0 0 1-5.664 5.664c-.205.047-.205.326 0 .364a7.52 7.52 0 0 1 5.664 5.664c.047.205.326.205.364 0M26.182 81.846a7.52 7.52 0 0 1 5.664-5.664c.205-.047.205-.326 0-.364a7.52 7.52 0 0 1-5.664-5.664c-.047-.205-.326-.205-.364 0a7.52 7.52 0 0 1-5.664 5.664c-.205.047-.205.326 0 .364a7.52 7.52 0 0 1 5.664 5.664c.047.205.326.205.364 0"/><path fill="#fff" d="M66.07 62.736 53.828 74.98a5.77 5.77 0 0 1-8.156 0L33.427 62.735a23.083 23.083 0 1 1 32.643 0"/><path fill="#B8D1F5" d="M50 76.667C72.5 45 62.5 30 46.848 23.333c-22.5 5-17.5 17.5-20 25-2 6 13.055 20.834 20.833 27.5z"/><path stroke="#1960CA" stroke-linecap="round" stroke-linejoin="round" stroke-width="2.667" d="m52.053 74.035 12.242-12.241q0 0 0 0a21.748 21.748 0 1 0-30.759 0zm0 0a4.437 4.437 0 0 1-6.272 0q0 0 0 0L33.536 61.794z"/><circle cx="49.166" cy="46.666" r="8.667" stroke="#1960CA" stroke-width="2.667"/><path stroke="#669BE9" stroke-linecap="round" stroke-linejoin="round" stroke-width="2.822" d="M33.333 50c-.832-10.026 4.168-16.667 12.5-19.167"/></svg>