<svg xmlns="http://www.w3.org/2000/svg" width="100" height="100" fill="none" viewBox="0 0 100 100"><circle cx="50" cy="50" r="50" fill="#E8F0FC"/><path fill="#fff" d="M75 49.166c0-14.268-11.565-25.833-25.834-25.833S23.333 34.898 23.333 49.166C23.333 63.435 34.898 75 49.166 75 63.435 75 75 63.435 75 49.166"/><path fill="#B8D1F5" d="M66.666 50.07c0-12.255-9.142-22.504-21.377-25.07-6.257 0-10.299 2.945-13.393 5.983-4.698 4.611-8.563 12.202-8.563 19.087 0 7.52 2.048 11.734 7.136 17.07 3.608 3.786 8.563 6.697 15.452 7.86 11.916-2.78 20.745-12.887 20.745-24.93"/><path fill="#1960CA" d="M58.033 42.122c0 .792-.642 1.434-1.434 1.434h-3.225a.38.38 0 0 0-.303.614 6.8 6.8 0 0 1 1.23 2.619.38.38 0 0 0 .374.303h1.933a1.433 1.433 0 1 1 0 2.868h-1.853a.38.38 0 0 0-.374.312c-.58 2.725-2.806 4.8-6.556 5.477-.312.054-.41.455-.178.668l6.173 5.416a1.72 1.72 0 0 1 .115 2.485 1.724 1.724 0 0 1-2.422.08l-8.542-7.856a1.764 1.764 0 0 1-.374-2.093c.302-.579.9-.953 1.558-.953h.633c3.028 0 5.077-1.069 5.807-3.002a.388.388 0 0 0-.356-.534h-7.224a1.433 1.433 0 1 1 0-2.868h7.242c.25 0 .445-.24.374-.481-.588-1.969-2.173-3.055-4.587-3.055h-3.038a1.433 1.433 0 1 1 0-2.868H56.59c.792 0 1.434.64 1.434 1.434z"/><path stroke="#1960CA" stroke-linecap="round" stroke-linejoin="round" stroke-width="2.667" d="M49.607 24.001c14.21 0 25.726 11.517 25.726 25.727S63.817 75.454 49.607 75.454 23.88 63.939 23.88 49.729 35.397 24 49.607 24"/><path stroke="#669BE9" stroke-linecap="round" stroke-linejoin="round" stroke-width="2.822" d="M49.607 30.426c-10.662 0-19.311 8.64-19.311 19.302"/><path fill="#96BAF0" d="M21.182 30.18a7.52 7.52 0 0 1 5.664-5.665c.205-.047.205-.326 0-.363a7.52 7.52 0 0 1-5.664-5.665c-.047-.205-.326-.205-.364 0a7.52 7.52 0 0 1-5.664 5.665c-.205.046-.205.326 0 .363a7.52 7.52 0 0 1 5.664 5.665c.047.204.326.204.364 0M76.182 81.846a7.52 7.52 0 0 1 5.664-5.664c.205-.047.205-.326 0-.364a7.52 7.52 0 0 1-5.664-5.664c-.047-.205-.326-.205-.364 0a7.52 7.52 0 0 1-5.664 5.664c-.205.047-.205.326 0 .364a7.52 7.52 0 0 1 5.664 5.664c.047.205.326.205.364 0"/></svg>